<?xml version="1.0" encoding="UTF-8"?>
<svg id="Layer_0_Image" data-name="Layer 0 Image" xmlns="http://www.w3.org/2000/svg" viewBox="0 0 240 240">
  <path class="cls-2" stroke="black" stroke-width="10px" fill="white" d="M133.93,201.74c-19.18-.07-36.02-2.69-52.07-9.34-15.2-6.3-29.35-14.37-41.49-25.64-4.76-4.43-8.94-9.33-12.31-14.95-3.73-6.23-5.27-12.93-4.65-20.08.81-9.31-1.06-17.93-5.95-25.92-1.75-2.86-3.39-5.84-3.83-9.24-.94-7.13.17-13.71,5.55-19.02,2.36-2.32,5.35-3.43,8.45-4.3,2.61-.73,5.24-1.39,7.87-2.06,6.66-1.7,12.36-5.1,17.37-9.75,4.68-4.35,9.57-8.36,15.65-10.66,4.83-1.83,9.78-3.19,14.86-4.1,7.65-1.37,15.37-1.95,23.13-1.95,14.38,0,28.22,2.86,41.7,7.73,12.8,4.63,24.89,10.63,36.17,18.26,4.78,3.23,9.44,6.63,13.36,10.89,5.27,5.73,9.1,12.42,12.44,19.41,2.18,4.55,3.88,9.27,4.87,14.23,1.23,6.19,3.65,11.87,7.09,17.16,2.72,4.17,4.12,8.79,4.31,13.78.31,7.78-3,13.55-9.7,17.43-.97.56-1.94,1.13-2.95,1.6-6.79,3.13-12.3,7.83-16.87,13.7-4.86,6.24-10.51,11.54-18.07,14.37-3.7,1.38-7.43,2.7-11.21,3.82-7.56,2.24-15.32,3.51-23.17,4.14-4.14.33-8.3.4-10.57.5Z"/>
</svg>