<?xml version="1.0" encoding="UTF-8"?>
<svg xmlns="http://www.w3.org/2000/svg" viewBox="0 0 50 200" width="50" height="200">
  <!-- Main vine stem -->
  <path class="vine-stem" d="M25,0 C25,40 40,60 15,100 C40,140 10,160 25,200" fill="none" stroke="#2E7D32" stroke-width="3" stroke-linecap="round"/>
  
  <!-- Small vine tendrils on the left -->
  <path class="vine-tendril-left-1" d="M25,30 C15,35 5,30 0,25" fill="none" stroke="#2E7D32" stroke-width="2" stroke-linecap="round"/>
  <path class="vine-tendril-left-2" d="M15,100 C10,105 0,100 0,95" fill="none" stroke="#2E7D32" stroke-width="2" stroke-linecap="round"/>
  <path class="vine-tendril-left-3" d="M25,170 C15,175 5,170 0,165" fill="none" stroke="#2E7D32" stroke-width="2" stroke-linecap="round"/>
  
  <!-- Small vine tendrils on the right -->
  <path class="vine-tendril-right-1" d="M25,60 C35,65 45,60 50,55" fill="none" stroke="#2E7D32" stroke-width="2" stroke-linecap="round"/>
  <path class="vine-tendril-right-2" d="M40,130 C45,135 50,130 50,125" fill="none" stroke="#2E7D32" stroke-width="2" stroke-linecap="round"/>
  
  <!-- Optional vine leaves -->
  <path class="vine-leaf-1" d="M5,25 C0,20 5,15 10,20 C15,15 20,20 15,25 C20,30 15,35 10,30 C5,35 0,30 5,25 Z" fill="#A5D6A7" stroke="#2E7D32" stroke-width="1"/>
  <path class="vine-leaf-2" d="M45,55 C40,50 45,45 50,50 C55,45 60,50 55,55 C60,60 55,65 50,60 C45,65 40,60 45,55 Z" fill="#A5D6A7" stroke="#2E7D32" stroke-width="1"/>
  <path class="vine-leaf-3" d="M5,165 C0,160 5,155 10,160 C15,155 20,160 15,165 C20,170 15,175 10,170 C5,175 0,170 5,165 Z" fill="#A5D6A7" stroke="#2E7D32" stroke-width="1"/>
</svg> 